<svg xmlns="http://www.w3.org/2000/svg" height="105" width="400" viewBox="0 0 400 105"><path class="leaflet-interactive" stroke="#18a0fb" stroke-opacity="1" stroke-width="1" stroke-linecap="round" stroke-linejoin="round" fill="#18a0fb" fill-opacity="1" fill-rule="evenodd" d="m62.5 50.5 1 3.5 -1 1 0.5 0.5 -2 6 -1 1 0.5 24.5h19.5v-8.5h6l12.5 -18.5v-3l-2 -2 1 -0.5 -0.5 -2 -1.5 -3 -1 -0.5 -1.5 -7 2 -2 3 -11.5 -3.5 -2.5 -0.5 -2h-4v-3l-3 -3.5 -7.5 -1v-1.5h-3l-1 -1 -2 0.5v-1l-4 -0.5 -7 1 0.5 4.5 -2.5 2 -3.5 0.5 -1 5 -3 7v11.5l5.5 2.5 1 3.5z"/></svg>