<svg xmlns="http://www.w3.org/2000/svg" height="105" width="400" viewBox="0 0 400 105"><path class="leaflet-interactive" stroke="#18a0fb" stroke-opacity="1" stroke-width="1" stroke-linecap="round" stroke-linejoin="round" fill="#18a0fb" fill-opacity="1" fill-rule="evenodd" d="m53 67.5 1 1.5 0.5 -1.5 3.5 0.5 3 -2 0.5 0.5 4 -1.5 4 2 2 3.5 2.5 2 -0.5 -3 2 -1 1 -2 -0.5 -1h1l2.5 -2.5 0.5 -2.5 4 -2 0.5 -1.5 2.5 -2.5 1 -3 2 -0.5 1.5 -3.5 1.5 -1 1.5 -3 1.5 -0.5 0.5 -1.5 2 1 -1 -2.5h1l0.5 -1 -2 -2.5v-2l-3 -4.5 0.5 -1 -1.5 -0.5 -3 3.5 -1.5 -2h-1.5l-0.5 1 -1.5 -1 -3 0.5 -9.5 -3 -7.5 0.5 -1.5 1 -1.5 1.5 1 4 -0.5 1.5 -1 2.5h-1.5l-0.5 1.5 0.5 5.5 -1.5 4.5 -0.5 1h-1l-1 2h-1l-1 2.5v3l-1 2 1.5 3 -1.5 3 0.5 1z"/></svg>