<svg xmlns="http://www.w3.org/2000/svg" height="105" width="400" viewBox="0 0 400 105"><path class="leaflet-interactive" stroke="#18a0fb" stroke-opacity="1" stroke-width="1" stroke-linecap="round" stroke-linejoin="round" fill="#18a0fb" fill-opacity="1" fill-rule="evenodd" d="m84 24 -4 1 -1.5 -0.5 -2 2 -3 -0.5 -1 0.5v1l-1 -1.5 -0.5 1 1 4 -1 2 -2.5 3 -0.5 2 -1.5 0.5 0.5 1 -1 1.5h-1l-1 2 -3.5 1.5 -0.5 1 0.5 1.5 -1 0.5 1 1.5 -1.5 6 1 5.5 6.5 6.5 3.5 2v1l2 1 1.5 -1 0.5 1.5h2l0.5 1 3 0.5 4 3 3 -0.5 -1.5 -6 1.5 -6 3 -2 -1 -6 1 -4 -1 -1v-4l1 -0.5 1.5 -3.5 -1.5 -1 1.5 -1.5 2 -7.5 -1 -2 -2 -1 -0.5 -2.5 -3 -2z"/></svg>