<svg xmlns="http://www.w3.org/2000/svg" height="105" width="400" viewBox="0 0 400 105"><path class="leaflet-interactive" stroke="#18a0fb" stroke-opacity="1" stroke-width="1" stroke-linecap="round" stroke-linejoin="round" fill="#18a0fb" fill-opacity="1" fill-rule="evenodd" d="m49 23 -0.5 20 5 1.5 6 5h2v1l2 2 6.5 4.5 3 5 4 2 2 4 2.5 0.5 2 2.5 1 -0.5 2.5 1 7.5 6 0.5 -3 0.5 0.5 0.5 -1v-4l3 -3.5 0.5 0.5 -0.5 -1 1 -0.5 -0.5 -0.5 1.5 -3 2 -1 -2 -4.5 -3 -2.5 -1 0.5 -1.5 -1.5 -1 0.5 -1.5 -1.5 -4 -1 -6.5 -3.5v-1l-7.5 -5 -2.5 0.5 -2.5 -1.5 -1.5 0.5 -3 -1 -3.5 -4 -3 -1.5 -1.5 -2 -2 -0.5 -3 -3v-1l-3 -4 0.5 -0.5z"/></svg>