<svg xmlns="http://www.w3.org/2000/svg" height="105" width="400" viewBox="0 0 400 105"><path class="leaflet-interactive" stroke="#18a0fb" stroke-opacity="1" stroke-width="1" stroke-linecap="round" stroke-linejoin="round" fill="#18a0fb" fill-opacity="1" fill-rule="evenodd" d="m95 57.5 -4 -6.5 0.5 -5.5 -5 -2 -1 -5 0.5 -2 -1 -1.5h-1v-2.5l1 -3 1.5 -1v-4l1 -0.5v-1.5l-13 0.5 -3.5 -4 -3 -0.5 0.5 -1 -4 -2.5 -1 0.5 0.5 1.5 -1.5 5.5 -8 3.5h-2l-1 5 -4.5 2.5h-1.5l0.5 3 -4 4 4.5 4.5 -5 17 4.5 4.5v2h2l2.5 3.5h1.5l0.5 1.5 2 1 4 0.5v-1l1.5 -0.5 1 -1.5 -0.5 -0.5 1 -2v-6.5l-1.5 -4.5 1.5 -4.5 4.5 1.5 3.5 2.5 -1 7.5 1 3.5 3.5 1 2 2.5 2.5 6.5 3 2.5 0.5 -1 1 1h2l0.5 1 3 -1 2.5 2.5 3.5 1h1l0.5 -2.5 1 -0.5 3.5 3h1l2 -3 6 -2 2.5 -4.5 -0.5 -18h-4l-2 3 -5 -4h-2l-1 1z"/></svg>