<svg xmlns="http://www.w3.org/2000/svg" height="105" width="400" viewBox="0 0 400 105"><path class="leaflet-interactive" stroke="#18a0fb" stroke-opacity="1" stroke-width="1" stroke-linecap="round" stroke-linejoin="round" fill="#18a0fb" fill-opacity="1" fill-rule="evenodd" d="M76.5 30h-4l-1.5 -1.5v-1.5l-2 0.5 -4 -2 0.5 -1.5 -1 -2 -6.5 0.5 -2.5 4.5 -2 1 -0.5 2h-1l2 1.5 1 -0.5 4.5 6.5 0.5 1.5 -1 1.5v6l7.5 1 8.5 8v1l4.5 4.5 1.5 2.5v8.5l3.5 3.5v1l2 1.5 9 -1.5v-11.5l3 -7 1 -5 -3.5 -11h-1v-1l-3 -3.5 -3.5 -0.5 0.5 -2 -1.5 -1 -1 -4.5 -5 -1 -1 0.5 -0.5 1.5h-2.5z"/></svg>